<svg id="Capa_1" data-name="Capa 1" xmlns="http://www.w3.org/2000/svg" viewBox="0 0 288.16 163.69">
  <defs>
    <style>
      .cls-1 {
        fill: #e6dd33;
      }

      .cls-2 {
        fill: none;
        stroke: #1d222c;
        stroke-miterlimit: 10;
        stroke-width: 1.4px;
      }

      .cls-3 {
        fill: #1d222c;
      }

      .cls-4, .cls-5 {
        fill: #211915;
      }

      .cls-5 {
        font-size: 23.29px;
        font-family: DFWaWaSC-W5-GBpc-EUC-H, Wawati SC;
      }
    </style>
  </defs>
  <title>alicia_logo</title>
  <g>
    <g>
      <path class="cls-1" d="M291.47,316.39l-.25-3.44c.19-4,2.39-7,5.63-9.29a9.9,9.9,0,0,1,4.84-1.76,14.14,14.14,0,0,1,6,.35,13.79,13.79,0,0,1,4.08,2.12l.38.3a3.42,3.42,0,0,0,3.84.47,29.59,29.59,0,0,1,5.8-2c9.95-2.23,19.16-.73,27.44,4.86a30.87,30.87,0,0,1,13,18.89,30.5,30.5,0,0,1-.13,15.24A4.44,4.44,0,0,0,363.6,347a11,11,0,0,1,3.79,7.14,12.94,12.94,0,0,1-.4,5.93,12.34,12.34,0,0,1-7.21,7.25c-.59.25-1.25.23-1.85.42l-3.27.29a11.31,11.31,0,0,1-6.35-1.74,8.29,8.29,0,0,1-1.13-.81,4.33,4.33,0,0,0-4.82-.68,30,30,0,0,1-5.21,1.73c-10,2.28-19.29.79-27.62-4.87a31.76,31.76,0,0,1-12.86-34.14,4.33,4.33,0,0,0-.05-3,3.48,3.48,0,0,0-1.21-1.46,9.08,9.08,0,0,1-3.83-6.22C291.55,316.74,291.61,316.54,291.47,316.39Z" transform="translate(-84.36 -298.76)"/>
      <path class="cls-2" d="M331.61,308.14a20.86,20.86,0,0,1,14.4,4.2c.42.31.5.51.12,1-1.09,1.26-2.14,2.56-3.18,3.86-.27.34-.42.36-.77.1a15.26,15.26,0,0,0-15.1-2c-.39.14-.55.1-.72-.28-.68-1.49-1.36-3-2.1-4.46-.22-.45-.06-.56.34-.72A24.59,24.59,0,0,1,331.61,308.14Z" transform="translate(-84.36 -298.76)"/>
      <path class="cls-2" d="M295.74,314.09l-.25-3.44c.19-4,2.4-7,5.64-9.28a9.73,9.73,0,0,1,4.83-1.76,14,14,0,0,1,6,.35,13.67,13.67,0,0,1,4.08,2.12,3.57,3.57,0,0,1,.38.3,3.4,3.4,0,0,0,3.84.46,29.59,29.59,0,0,1,5.8-2c10-2.22,19.16-.73,27.44,4.87a30.81,30.81,0,0,1,13,18.89,30.39,30.39,0,0,1-.13,15.24,4.46,4.46,0,0,0,1.49,4.88,11,11,0,0,1,3.79,7.14,13,13,0,0,1-.39,5.93,12.35,12.35,0,0,1-7.21,7.24c-.59.25-1.25.23-1.86.43l-3.27.29a11.47,11.47,0,0,1-6.35-1.74,9,9,0,0,1-1.13-.82,4.31,4.31,0,0,0-4.82-.67,30.8,30.8,0,0,1-5.2,1.73c-10,2.28-19.29.79-27.63-4.87A31.73,31.73,0,0,1,301,325.27a4.48,4.48,0,0,0-.05-3,3.55,3.55,0,0,0-1.22-1.45,9.12,9.12,0,0,1-3.83-6.22C295.83,314.44,295.89,314.24,295.74,314.09Z" transform="translate(-84.36 -298.76)"/>
    </g>
    <ellipse class="cls-3" cx="312.54" cy="344.94" rx="0.57" ry="0.55" transform="translate(-173.8 -188.51) rotate(-17.54)"/>
    <ellipse class="cls-3" cx="315.53" cy="348.34" rx="0.57" ry="0.55" transform="translate(-174.68 -187.45) rotate(-17.54)"/>
    <ellipse class="cls-3" cx="311.55" cy="348.14" rx="0.57" ry="0.55" transform="translate(-174.81 -188.66) rotate(-17.54)"/>
    <ellipse class="cls-3" cx="309.15" cy="341.94" rx="0.57" ry="0.55" transform="translate(-173.05 -189.67) rotate(-17.54)"/>
    <ellipse class="cls-3" cx="316.28" cy="345.47" rx="0.57" ry="0.55" transform="translate(-173.78 -187.36) rotate(-17.54)"/>
    <ellipse class="cls-3" cx="312.77" cy="341.06" rx="0.57" ry="0.55" transform="translate(-172.62 -188.62) rotate(-17.54)"/>
    <ellipse class="cls-3" cx="322.41" cy="350.35" rx="0.57" ry="0.55" transform="translate(-174.97 -185.28) rotate(-17.54)"/>
    <ellipse class="cls-3" cx="318.8" cy="351.94" rx="0.57" ry="0.55" transform="translate(-175.62 -186.3) rotate(-17.54)"/>
    <ellipse class="cls-3" cx="328.17" cy="357.67" rx="0.57" ry="0.55" transform="translate(-176.91 -183.21) rotate(-17.54)"/>
    <ellipse class="cls-3" cx="323.8" cy="355.36" rx="0.57" ry="0.55" transform="matrix(0.95, -0.3, 0.3, 0.95, -176.41, -184.63)"/>
    <ellipse class="cls-3" cx="328.24" cy="350.98" rx="0.57" ry="0.55" transform="translate(-174.89 -183.5) rotate(-17.54)"/>
    <ellipse class="cls-3" cx="330.25" cy="354.39" rx="0.57" ry="0.55" transform="translate(-175.82 -182.73) rotate(-17.54)"/>
    <ellipse class="cls-3" cx="334.4" cy="355.2" rx="0.57" ry="0.55" transform="translate(-175.87 -181.44) rotate(-17.54)"/>
    <ellipse class="cls-3" cx="336.2" cy="357.79" rx="0.57" ry="0.55" transform="translate(-176.57 -180.78) rotate(-17.54)"/>
    <ellipse class="cls-3" cx="336.03" cy="351.7" rx="0.57" ry="0.55" transform="translate(-174.74 -181.11) rotate(-17.54)"/>
    <ellipse class="cls-3" cx="333" cy="358.95" rx="0.57" ry="0.55" transform="matrix(0.95, -0.3, 0.3, 0.95, -177.07, -181.69)"/>
  </g>
  <g>
    <path class="cls-4" d="M173.26,348.4c-.76,4.34-1.27,8.55-1.91,12.76,0,.39-.38.64-.51,1.53a32.64,32.64,0,0,1-.38,4.22c-1,3.95-2.05,11.1-2.94,16.34a25.79,25.79,0,0,0-.51,2.8,22.09,22.09,0,0,0,0,2.94c.13.38,1.4.38,1,1.4-1.4,0-1.15,1.15-1.91,1.79-.51,5.49-.64,10.47-1.28,16.47a54.32,54.32,0,0,0-.64,7.53c0,1.53-.38,3.06-.38,4.34v1.78c0-.12.76.39.38.51-.51.52,0,.13,0,.52a.38.38,0,0,1-.38.51c.13.38.38.38.38.89.13.26-.25,2.42,0,2.81a2.6,2.6,0,0,1,1,2.3,10.16,10.16,0,0,1-6.12-.39c-.26-.13,0-.38-.39-.38-.89-.13-.64-.26-1-.51-.89-.51-2.93-.51-2.81-1.92-1.27,0-1.53.77-2.93.39.38-1.41-.9-.77-1.28-1.53-1.66-1.92-1.53-4.22-1.91-6.39,0-.12-.39-.12-.51-.51a30,30,0,0,0,0-3.32c0-1-.51-1.78-.51-2.8a9.45,9.45,0,0,1,0-1.92c.51-.51,0-.51,0-1.4s.51-.9.51-1.41-.51-.63-.51-1.4c0,.13.51-.26.51-.38,1-4.22-.51-9.58.51-13.15-5.87.13-10.85.89-16.47,1.4-1.91,1.15-2.81,3.58-3.83,5.49-.13.26-.38,0-.51.51a2.32,2.32,0,0,1-.77,1.79c-.51.38-.51,1.53-1,2.55-.12.38-.89.77-.89.9-.38.63-.13,1.14-.51,1.91-.38.38-.77.13-.89.38-.39.39-.13,1.92-.64,2.81-.13.38-.9.89-.9,1.15-.38.51-.12.38-.51.77-.76.89-.76,3.83-2.29,5.23-.51,2.17,0,3.19-.51,4.59a24.65,24.65,0,0,1-7.92-1.78c-.25-.13,0-.39-.51-.51a11.87,11.87,0,0,1-1.4-.39c-1.15-.51-3.83-1.53-4.22-3.44-.51-1.66.26-3.45.9-5.62a29.06,29.06,0,0,1,2.55-7c0-.13.26,0,.38-.51a8.17,8.17,0,0,1,.39-1.91c.25-.26.89-.51,1-.9s-.13-.89,0-1.27.38,0,.38-.77c.13-.26.64-.64.51-1.15-1.91-2.55-7.4-1.53-7.4-5.74.51.12.13-.77.38-.9s.64.13.89,0,.77-.89.9-1c.76-.25,2.68-.25,3.32-.38a26,26,0,0,1,2.68-.38c1.15-.13,2.17-.39,2.93,0,1.28-.64,1.79-1.66,2.43-3.07.13-.25.38,0,.38-.51v-.38c.26-.26.89-.64,1-.89s-.13-.77,0-.9.39,0,.39,0-.13-.76,0-.89a8.17,8.17,0,0,0,1-1,8.26,8.26,0,0,0,1.4-2.81c0-.64.64-.64.89-1a12.1,12.1,0,0,0,.9-2.3c.51-.64,1.15-.89,1.53-1.4s.25-1.15.51-1.53.13-.52.38-.77a8.17,8.17,0,0,1,1-1c0-.13-.25-.77,0-.9,0,0,.51.13.51,0,.13-.38.64-.63.77-1s-.13-.76,0-.89.51.13.51,0-.13-.89,0-1c1.15-.77,2-2.94,3.45-4.72.25-.39.64-.52.89-.77s-.13-.89,0-1,1.28-.51,1.41-1.28c0-.51.63-1.15.76-1.53.38-.25.38-.77.64-1.15s.64-.51.76-.76.26-.64.52-.9.76-.76,1-1,.25-.51.51-.76c.51-.77,1.15-.9,1.53-1.41s0-1.4.38-1.66c.13-.25.64-.25.9-.51,0-.13-.26-.64,0-.76a34.39,34.39,0,0,0,2.17-2.81,8.77,8.77,0,0,0,1.53-1.41c.12-.12,1-.89,1-1s-.38-1.15,0-1.53c.13-.13.76.26.89,0s-.13-.64,0-.77.77-.25.9-.51c.38-.38.25-1,.51-1.4s.76-.38.89-.51c1-1.15,1.4-2.43,2.42-3.83.13-.26.39.13.39-.38,0-.26.89-.64,1-1-.26.51-.51-.26-.51-.51s1.15-.64,1.4-.9-.25-.76,0-.89a11.15,11.15,0,0,1,2-1.28,3.3,3.3,0,0,1,3.58,0c.25.13,1.28.38,2,.77,0,.13.38,1,.51,1,.38.25.26-.51.38-.51.39-.13,2.05.76,2.43.89a4.75,4.75,0,0,0,1.28.9c.38-.26.38.51.38.51s1.15-.77,1.53-.51c.26.51.38.38,1.15.51a13.4,13.4,0,0,1,1.28.63,2.47,2.47,0,0,0,1.4.77c.13.13.77-.13.77,0a4.37,4.37,0,0,0,2,2C174.8,340.36,173.9,344.31,173.26,348.4Zm-64.07,66.37c0,.64.38,1.92.51.9C109.83,415,109.44,414,109.19,414.77Zm.51-1.27c.38.51.13.12.51-.51.38-.9,1.27-3.83.38-2.43,0,.38,0,.77-.38.64C110.59,412.48,109.44,412.35,109.7,413.5Zm1.78-4,35.87-40.34c-.25.39-.25.64-.51.9s-.51.51-.89,1c-.77.64-.64,1.28-1,2.3,0,.12-.77.25-.77.51a2.08,2.08,0,0,0-.76,1.91c-1.15-.13-1.28,1.66-1.66,2.3-.39.25-1.15.38-1.41.77-.38.63-.13,1.66-.38,2s-.77.51-1,1c-.13.25.13.64,0,.89s-.9.26-1,.39c-.9,1.14-.64,2.17-1.54,3.31,5-.38,8.81-.63,12.77-1,1-7,1.66-14,2.42-21.19-.12-.25,0-.76-.51-.89a4.67,4.67,0,0,1-1.53,2.43C148.88,367,147.74,368.57,147.35,369.2Zm6,26.81c-.38,1.79.26,2.55.51,1.4C154,397.16,153.61,394.61,153.35,396ZM154.88,381c0,.89-.25,4.21.39,2.81C155.27,383,155.52,379.42,154.88,381Zm.39-3.83c-.39,1.79.25,2.42.63,1.4C155.9,378.27,155.52,376,155.27,377.12Zm.63-4.21c-.51,1.91.13,2.55.51,1.4C156.41,374.05,156.16,371.63,155.9,372.91Zm.9-8.56c.64,2.3-1.41,4.34,0,5.75C156.41,368.06,158.07,366,156.8,364.35Zm.51-2.8c-.38,1.91.13,2.42.38,1.53C157.69,362.82,157.56,360.27,157.31,361.55Zm.38-3.07c-.38,1.66.26,2.3.38,1.28C158.2,359.5,158,357.08,157.69,358.48Zm0,40.85c0,.89.51,2.81,1,3.06-.12-2.68-.64-3.83.39-6.38-1.66-.13-1.15,2.68-1,3.32Zm1-45.7c0,.89-.51,1-.64,1.79C157.82,360.52,159.73,353.12,158.71,353.63Zm-.64,38.55c1.28.38-.76,4.72,1,2.81C158.59,395.37,159.86,390.27,158.07,392.18Zm1-11.61c.25.76-.51,2.68.38,2.68C159.1,381.71,160.76,381,159.1,380.57ZM162.93,402c1,0-.52-.64-.52-.89s.64-.13.52-.9-.64,0-.52.9H162C161.65,401.37,162.8,402,162.93,402Z" transform="translate(-84.36 -298.76)"/>
    <path class="cls-4" d="M198.16,343.55c-.26.64-.26,2-1.28,2.3,0,1,.13,2.55-.76,3.31-.51.64,0,1.28-.26,2-.13.12-.76.25-.76.63-.13.13.76.9-.52.77.64,1.53-.38,3.57-.89,5.87a13.29,13.29,0,0,0-.76,2.43c-.26.76.12,1.15-.39,2.29,0,.26-.76.9-.89,1.15a17.74,17.74,0,0,0-.13,2.81,23,23,0,0,0-.76,2.81,7.21,7.21,0,0,1-.39,1.92c0,.51-.38.63-.51,1.14.13-.25.9.26.64.51-.64.51-.64.39-.89,1.28-.13.13.13.89.13,1a1.2,1.2,0,0,0-.39,1.41,2.66,2.66,0,0,1,0,1c-.51.38-.76,2-1.15,3.19,0,.25.26.89.13,1-.51.64-.38,1-.38,1.91.13-.12-.77.26-.38.51s-.13,1-.26,2.3c-.26,1.79-.38,3.7-.64,5.36,0,.13-.38.13-.38.51.13.13.51-.12.38.39a.58.58,0,0,0-.25.63c0,.77-.39.77-.39,1.41,0-.13.77.13.51.51-.63.51-.63,1.15-.76,2.81s-.77,2.68.89,3.7c.13.64.51-.26,1.28-.13s-.26.51,0,.9c.64,1,1.91-.52,3.44.89-.89,1.4-.63,2.55-1.14,4.21,0,.13-.39.13-.39.51a8.52,8.52,0,0,1-.25,2.43c-.26.38-.77.38-.9,1-.38,1,0,2-.38,2.81-.13.25-.25,0-.25.51s-.77.64-.9,1c-.25.76-.13,1.27-.38,1.91-.51,1.15-.77,2.68-1.53,3.45s-2.68.51-3.83.25c-1.53-.12-3.07-.89-5.36-1.53a12.06,12.06,0,0,1-1.92-.25c-.13,0,.13-1,0-.9-.51-.38-1.15-.12-1.53-.51-.64-2.55-1.4-4.59-1.4-7.78,0,.12.63-.26.25-.51-.76-.64,0-1-.13-2.81a26.17,26.17,0,0,1,0-6.26,2.32,2.32,0,0,0,.26-.89c.13-.77-.26-2-.13-2.81,0-.13.51-.25.38-.64s-.12-1.27-.12-1.4c.64-.38,0-.13,0-.89,0,0,.51-.26.51-.51s-.13-.39-.13-.52c.13-1.27.51-2.8.64-4.59a14.52,14.52,0,0,1-.26-1.92,1,1,0,0,1,.51-.12c.39-2.81.64-6,1.15-9.07a31.29,31.29,0,0,0,.9-3.31c0-.13-.26-.9-.13-.9s.51,0,.51,0a18.94,18.94,0,0,0,.25-2.42c.39-1.79.9-4.22,1.41-6.26.38-1.15.38-2.55.76-3.44,0-.39.39-1.54.64-2.81.13-.9.13-1.92.26-2.68.13-.13.51,0,.51-.51s.76-1,.76-2.3c0-.77.77-1.53.64-2.43s1.15-3.19,1.66-4.34c0-.25-.25-.76,0-.89,0-.13.77-.38.77-.51.13-.51-.26-1-.13-1.4s.77-.51.89-.64c.26-.64,0-1.66.39-2.3.12-.26.76-.38.89-.64s-.26-.89-.13-1a1.9,1.9,0,0,0,.77-1.91c.76-.13,1.27-.51,1.27-1,.64.64,1.92,0,2.17.77,1-.38.9.64,1,1.41,1-.9,2,0,2.16-.64,1-.64.77,1.4,1.66,1.15.13,0,0-.51.51-.39.13,0,0,.39.39.26,1,.25.89.13,2.42.51-.13,0-.63,1.15.13,1,0,0,.13-.77.38-.51.39,0,.39.38.9.38C199.44,341.89,198.29,342.53,198.16,343.55Zm-22.59,53.61c0,.64.51,1.91.76,1C176.33,397.41,175.82,396.39,175.57,397.16Zm1.4-9.58c-.13.64.38,1.92.51.9C177.61,387.84,177,386.69,177,387.58Zm.89-5.74c.39.77-1.27,2.17.26,2.43C177.86,383.37,179,380.82,177.86,381.84Zm2.81,16c0-.13.26,0,.26,0,.25-.51-.26-1.41-.13-1.92a.56.56,0,0,0,.38-.51c.13,0,0-.25,0-.38,0-.51.51-.51.51-.64.39-1.79-.38-3.83,1.15-5.11-.89-.25-.64-1.27-.13-1.66.13,0-.12-1.14-.12-1.27s.12-.64.25-.51c0-.51-.51-1.28-.38-1.41s.77-.12.77-.12-.13-.77-.13-.9a1.9,1.9,0,0,1,.51-.51c.13-.89-.38-2.17-.26-2.81,0-.12.9-.76,1-.89.26-1.4,0-2,.26-2.55,0,0-.13-.26,0-.39a.57.57,0,0,1,.38-.51c0-.63-.64-1.14-.51-1.4,0,0,.77-.26.77-.38.12-.64-.51-1.28-.51-1.66.12-.13.89.13.89,0a15.72,15.72,0,0,0,.26-1.92c.38-1.4.51-2.17.76-2.29.51-.39,0-1.66.9-1.66,0-.9-.52-.9-.64-1.66,2,0,.12-3.07,2-3.19-1.4-1.41,1.53-3.32.38-4.6,0,1-1.4,1.66-1.4,1.92-.38.89.13,1.4-.38,1.91-.13.13.12.89,0,.89h-.39c-.13.13.13.77.13,1-.89,1.28-1.92.51-.38,1.54-1.41-.26-.39.76-.51.89s-.77-.13-.9,0-.38,1.66-.38,1.53c.13.51-.51.38-.38.51-.13.64.25,1.28.12,1.79s-1,.38-.38,1c.26.26-.76,1-.76,1.15-.39,1.28,0,1.66-.39,2.42a5.23,5.23,0,0,0-.38.9c0,.13.77,0,.51.38-.25.64-1.28.51-.38,1,.38.26-.51.64-.51.64,0,1.28.25,2.17-.64,2.3,1,1.66-.89,1.27.25,1.91.26.13-.51.51-.51.38a1.5,1.5,0,0,0,.64,1.41,2.42,2.42,0,0,0-1.53.64c-.13.89.77.89.64,1.66,0,.12-.9.89-.9,1.15-.25.76-.25,2.55-.38,2.29.13.26.64-.12.51.64a2.68,2.68,0,0,0-.38.51c0,.13.13.38,0,.51,0,.39-.26.39-.26.39a19.34,19.34,0,0,0,.26,2.42c0,.13-.64,0-.51.51,0,.26.51-.13.51.26,0,.12-1,.12-1,.12,0,.77.51,1,.64,1.54,0-.13-.51.25-.51.38.12.51.63.64.63,1,0,.13-1,0-1,0-.38,1.4.77.64.13,1.79-.38.64-.25.76.13,1s-.38.51-.51.51.64.64.51.89c-.51.64.25.13.13.9,0,.12-.77.38-.39,1,.13.25,0,.76.51.76.13-.51,1.15-.64,1.54-.89A9.35,9.35,0,0,1,180.67,397.8Zm-1.53-23c.38.64-1.15,1.92.13,2.17C179.14,376.22,180.16,373.67,179.14,374.82Zm1.4,28.47c-1.53,0-1.27,1.4-1.78,2.29C180.29,405.84,180.54,404.43,180.54,403.29Zm-.25,2.8h-1.4c-.26,1,.12,1.66,1,1.79C179.78,407,179.91,406.35,180.29,406.09Zm1.91-41.61c.26-1.79-1-1.66-.51.13-.38.13-.51.38-.51.89C181.82,365.5,181.69,364.74,182.2,364.48Z" transform="translate(-84.36 -298.76)"/>
    <path class="cls-4" d="M214.5,374.05c0,.13-.89.77-.89.9-.13.38.63.51.38.89,0,.26-.89.9-.89,1-.13.51.12,1,0,1.41-.13.12-.39-.13-.39.38,0,.89-1,2.55-1.66,4a12.21,12.21,0,0,0-.38,1.78A151.23,151.23,0,0,0,206,404.82c-.64,3.83-1.79,10.85,0,15.06.12.25,1.27.64,1.4,1s-.64.64-.51,1.28c-.77-.51-1.91-.26-2.81-.51-1.15-.26-2.42-1.28-4.08-1.79-1-.26-1.92-.13-2.43-.51a13,13,0,0,1-3.83-6.64c-.12-.64.13-1.28,0-1.91-.76-3.07-.38-10.47,0-13.79.26-1.53.26-3.57.51-5.1,0-1.15.64-2.05.9-3.2.38-1.4.25-2.55.51-3.83.64-2.17,1.4-4.59,1.91-6.63a16.37,16.37,0,0,0,.9-2.43c.25-.64.25-1.15.51-1.79a4.73,4.73,0,0,0,.51-1.4c.12-.51.38-.25.51-.51.76-2.3,1-4.6,2.81-5.74,1.78-.26,4,1,2.8,2.42,1-1.4,3.19-.25,4.22,1,.38-1.4,1.78.26,2.42.51.9.39,2,.39,2.81.9A6,6,0,0,1,214.5,374.05ZM204,384.39c-.13.39-.64.64-.89,1s.13.76,0,1-.89.12-.89.38.51,1.28.51,1.4c-.51.64-1.92.77-2,1.41.13-.26,1,.51,1,.51.9,1.91-.89.64-1,1.4,0-.13.51.51.51.9,0,.12-.51,0-.51.51,0,0,.77.51,0,.51-1.15,0-.25,1.78-.25,1.78s-.51.26-.51.51c-.26.77-.39,1,0,1.28.51.51-.51,2-.51,2.17s.51.51.51.51c0,.26-.51.38-.51.77a18,18,0,0,1-.51,3.32c0,.12.63-.13.51.51,0-.13-.51.38-.51.51-.77,1,0,1.4,0,2.8,0,.64-.64.39,0,.9.25.25-.39.64-.51.38.25,1,.25,1,1.53,1.41.38-2.05.51-4.73.76-6a11.79,11.79,0,0,0,.51-2.81c.39-3.19,1.15-5,1.54-7.15s-.13-2,.76-2.81c.13-.13,0-.89,0-1a4.29,4.29,0,0,0,0-3.32c2,.77,0-2.55,2-1.78-.38-1.41.39-1.66.39-2.81-1.41-.26-1.79.38-1.92,1C204,383.88,204.16,384.27,204,384.39Zm-1.27,20.43c-.51,1.66.25,2.3.38,1.27C203.27,405.84,203,403.41,202.76,404.82Zm.76-6.77c-.38,1.28-.76,3.7-.38,4.34.76.38,2-.89.89-.89.26.38-.51.38-.51.51C203.9,401,204.93,399.07,203.52,398.05Zm1.53-4.59c-.12,0-1,.12-1,.38-.13.89.77,1.15.51,1.91,0,.13-.89-.12-1,0s.26,1.41,0,1.79c1.28.64.89-.89,1-1.79h.51c.13-.51-.25-1.53,0-1.91,0-.13.51,0,.51,0,.13-.64-.63-1-.51-1.4a.86.86,0,0,0,.51-.51c0-.26.64-1.66.39-1.79s-1.15.13-.9.38c.9.38-.51,1.41-.51,1.41C204.41,392.56,205.05,393.2,205.05,393.46Zm9.45-50c.89.38,2.3.38,1.79,2.3a3.37,3.37,0,0,0,1-1.53c.38.51,1.4.38,1.53,1,0,1.4.89-.9,1.28,1,1-.9.63,0,1.91,0,.26.51-.77,1-.38,1.28H222c-.13.76-.77,1.65-.89,2.29a9,9,0,0,1-1,3.07c-.13.12-.26,1.27-.52,1.4a3.94,3.94,0,0,0-.76,1.79c-.26.76-.51,2.17-1.53,2.42-.13,1.28-.26,2.81-1.28,3.32-1,.26-1-.77-1-1.53a3.19,3.19,0,0,0-1,1.53c-.64-.25.13-.51,0-1a3,3,0,0,1-2.3.51c.13-1.28-.89-1,0-1.91-1,.38-1.27,1.27-2.94.89.26-1.4-.89-1.53-.38-3.19-.76.38-.76,1.53-1,2.3-1.79,0-1.79-1.54-3.32-1.92.51-.38.38-1.15.51-1.79.13-.38.51-.38.51-.51,0-.38-.51-.51-.51-.38,0-.26.39-.76.51-1,.39-.64.13-.89.51-2.3,0-.13.39-.13.39-.51a6.53,6.53,0,0,1,.51-1.53,7.28,7.28,0,0,1,.89-2.68c.13-.26.26-1.41.51-1.53,0,0,.39.12.51,0,.26-.9.13-1.79.38-2.3s1.28-.51,1-1.4a14,14,0,0,1,3.32.89c.25,1.4-.39,1.66-.39,2.81A4,4,0,0,1,214.5,343.42Zm-7.66,35.23c-1.79.13-1,2.68-2.3,3.32C206.84,382.61,206.71,380.57,206.84,378.65Zm-.38,11c.25,0,.51,0,.38-.51-.64,0-.13-1.28-.89-1.41.12.9-.51,1-.39,1.92Zm.89-3.19a1.19,1.19,0,0,0-1.4.76A1.34,1.34,0,0,0,207.35,386.44Zm.51-8.17v-.9h-1v.9Zm.89,4.85c-.63,0-1.78.13-.89.51C209.14,384.14,209.52,381.59,208.75,383.12Zm2.3-33.32" transform="translate(-84.36 -298.76)"/>
    <path class="cls-4" d="M252.79,378.91c-1.15,1.14-1.53.25-3.32.89-.51-.13-.25-1.28-.51-1.41-.89-.63-1.91.13-2.8-1a1.34,1.34,0,0,1-.52-1.27,10.92,10.92,0,0,0-.76,1.27c-1.15-.12-1.4-.89-2.55-.76-.9.13-1.28,1.53-1.92,2.3-.13.12-.89.38-.89.51s.12.63,0,.76-.77-.13-.9,0,.13.77,0,1.15c-.12.13-.89.38-1,.51s.26.77,0,.89-.76.64-.89.9c-.38.51-.26,1-.51,1.53s-.64.38-.89.77c-.52.89-.9,1.91-1.41,2.93-.25.26-.25.89-.51,1.41-.13.25-.77.63-.89.89a12.72,12.72,0,0,0-.39,1.91c-.25.39-.25.9-.51,1.41a4.83,4.83,0,0,1-.51,1.27,7.11,7.11,0,0,1-1,1c-.25,1-.13,2.29-.38,3.44a.58.58,0,0,0-.39.51,1.64,1.64,0,0,0,0,.77,25,25,0,0,0-.5,4.34,12.46,12.46,0,0,0,.5,7c1.28-.13,2.56-1.15,3.71-1.92.51-.25.76-1,1.4-1.4s1.41-.51,1.79-.89.51-1,1-1.41c.13-.12.77.13.89,0s0-.38,0-.51a14.37,14.37,0,0,0,1.41-1.91c.25-.26.76-.51.89-.9.13-.12-.13-.76,0-.89a7.42,7.42,0,0,0,1-.51,29.41,29.41,0,0,0,1.28-2.81c.25-.38.89-.64,1-1s.13-1.15.51-1.91c.38-.39,1.28-.64,1.4-1,.64-1,.52-2.17,1-3.19.12-.25.89-.38,1-.38.12-.25-.13-.77,0-1s.76-.64.76-.89c.51-.77.39-2.81,2.05-2.43,0,.64.38.38.38,0,1.27.64,1.4.51.89,1.91a7.16,7.16,0,0,0,3.32,0v1.41c.51.25.77-.89.89-.89,1.15-.26.9,2,1.53.89a2.81,2.81,0,0,0,2.3.51c-.38,2-1.53,3.83-2.3,5.74-.12.26-.51-.12-.51.51,0,.26-.38.52-.51.77a9.41,9.41,0,0,1-.51,1.53c-.12.39-.63.64-.89.9s0,1.14-.89.89c0,1.66-1,2.93-1.92,4.34l-.89.89c-.38.38-.38,1-.89,1.79-.26.38-.52,0-.52.51s-2.17,2.17-2.8,3.32-1.79,1.4-2.94,2.42c-.76.77-1,1.66-1.53,1.79-.13.13-.64,0-.77,0s0,.51,0,.51c-.25.13-.89-.13-1,0s.13.51,0,.51-.89-.13-.89,0,0,.51,0,.51c-.26.13-.9-.12-.9,0-.76.9-3.44,1.15-5.74,1a20.93,20.93,0,0,1-6.25-2,7.49,7.49,0,0,0-1.28-.51c-.38,0-.38-.25-.51-.25-1.15-.51-2.3-.26-2.81-.51-.25-.13-.25-.9-.51-1a5.26,5.26,0,0,1-2.3-1.27,15.82,15.82,0,0,1-1.4-1.66c-.13-.13.13-.77,0-.9a4.57,4.57,0,0,1-1.41-1.91,14.48,14.48,0,0,1-.89-2.81c-1.15-4.34-.38-12.76,1.41-17,0-.25-.13-.76,0-.89s.38.13.38,0a27.85,27.85,0,0,1,.51-2.93.56.56,0,0,0,.51-.39c0-.64.89-1,.89-1.91a13.68,13.68,0,0,1,.9-2.3c.12-.38.38.13.51-.64s.89-1.4,1.4-2.3a11.24,11.24,0,0,1,1-1.78c.13-.39.64-.64.77-1s.25-.64.51-1a12.36,12.36,0,0,1,1.53-1.28c.25-.38.13-1,.38-1.4.51-.64,2.05-1.79,2.94-2.81.13-.39,0-.51.38-.51.9-.13.9-1.28,1.53-1.79.39-.38,1-.26,1.41-.51.13-.26.13-1,.38-1.15.51-.26,1-.26,1.4-.51s0-.38.52-.51,1.53-.9,2.29-1.28c.39-.13,2-.13,2.43-.51.38-.64,2.3-.51,3.7,0,.25.13,0,.51.51.51a4.06,4.06,0,0,1,1.92,1,2,2,0,0,1,.51.26c1.14.51,2.55.51,3.83,1,.12.13-.13.64.38.64h.51a23.93,23.93,0,0,1,2.3,1c1,.38,1.78,1.15,2.8,1.28-1,1,.9,1.53,1,1.91s-.51.89-.51,1.4a11.1,11.1,0,0,1-.51,2.3c-.12.38.13,1,0,1.41s-.38,0-.51.51a3.78,3.78,0,0,1-1.27,2.29c.76.39,0,.9,0,1.54s-1.41.12-1.41.76C251.52,380.31,253.05,379.8,252.79,378.91Zm-33.57,21.31c-.13.64.38,1.79.51.9C219.86,400.48,219.48,399.33,219.22,400.22ZM233,380.69c-.26.26.13,2.3-.51,2-.13,0,.12-1.14-.39-.89a1.33,1.33,0,0,0,.39,1.28c-1.53-.13-1.53,1-1.41,2.42-1.66.26-1.53,2.17-1.79,3.7a1.5,1.5,0,0,0-1.65,1c1.65.51-.51,1.66,0,2.8-1.66-.38-.77,2.17-.9,3.19-.13.13-.89.39-.89.52-.38.76.26,1.78,0,2.42-1.66-.76-.38-.13-.51.51,0,.26-.64-.13-.51.51.13.26.64.13.51.9-.13.51-.51.63-.51,1.4.13,1.4.13,3.45,1.53,2.81,0-.9-.64-.9,0-1.41.13,0-.13-.76,0-.89.38-1.28-.51-.77,0-1.91,0-.13.77-.26.77-.39.12-1-.52-1.15-.39-2,2.3.51-.89-1.79,1.41-1.28-.39-1.66-.39-1.15.64-2-1.28-.25.5-.64-.64-1.4,1.53-.26.25-1.41,1.14-2.3.26-.51,1-.38,1.28-1,0,.13-.89-.13-.89-.38s.77-.9.89-1a13.69,13.69,0,0,0,.51-1.4c.39-.77.77-1.53,1-1.91a7.35,7.35,0,0,0,.9-3.2,1.79,1.79,0,0,0,1.4-.38c-.64-2.42,2.68-3.06,1.41-4.47a3.54,3.54,0,0,1-1.92,1.92c0,.38,0,2.17-.51,2C233.39,381.84,233.26,380.31,233,380.69Zm4.59-4.08c.13.38-1.91.76-.38,1.27C237,377.25,239,376.74,237.6,376.61Z" transform="translate(-84.36 -298.76)"/>
    <path class="cls-4" d="M282.92,374.05c0,.13-.89.77-.89.9-.13.38.63.51.38.89,0,.26-.89.9-.89,1-.13.51.12,1,0,1.41-.13.12-.39-.13-.39.38,0,.89-1,2.55-1.66,4a12.21,12.21,0,0,0-.38,1.78,151.23,151.23,0,0,0-4.72,20.43c-.64,3.83-1.79,10.85,0,15.06.13.25,1.27.64,1.4,1s-.64.64-.51,1.28c-.76-.51-1.91-.26-2.81-.51-1.15-.26-2.42-1.28-4.08-1.79-1-.26-1.92-.13-2.43-.51a13,13,0,0,1-3.83-6.64c-.12-.64.13-1.28,0-1.91-.76-3.07-.38-10.47,0-13.79.26-1.53.26-3.57.51-5.1,0-1.15.64-2.05.9-3.2.38-1.4.25-2.55.51-3.83.64-2.17,1.4-4.59,1.91-6.63a16.37,16.37,0,0,0,.9-2.43c.25-.64.25-1.15.51-1.79a4.73,4.73,0,0,0,.51-1.4c.12-.51.38-.25.51-.51.76-2.3,1-4.6,2.81-5.74,1.78-.26,3.95,1,2.81,2.42,1-1.4,3.19-.25,4.21,1,.38-1.4,1.78.26,2.42.51.9.39,2,.39,2.81.9A6,6,0,0,1,282.92,374.05Zm-10.47,10.34c-.12.39-.63.64-.89,1s.13.76,0,1-.89.12-.89.38.51,1.28.51,1.4c-.51.64-1.92.77-2.05,1.41.13-.26,1,.51,1,.51.89,1.91-.9.64-1,1.4,0-.13.52.51.52.9,0,.12-.52,0-.52.51,0,0,.77.51,0,.51-1.15,0-.25,1.78-.25,1.78s-.51.26-.51.51c-.26.77-.39,1,0,1.28.51.51-.51,2-.51,2.17s.51.51.51.51c0,.26-.51.38-.51.77a18,18,0,0,1-.51,3.32c0,.12.63-.13.51.51,0-.13-.51.38-.51.51-.77,1,0,1.4,0,2.8,0,.64-.64.39,0,.9.25.25-.38.64-.51.38.25,1,.25,1,1.53,1.41.38-2.05.51-4.73.76-6a11.84,11.84,0,0,0,.52-2.81c.38-3.19,1.14-5,1.53-7.15s-.13-2,.76-2.81c.13-.13,0-.89,0-1a4.25,4.25,0,0,0,0-3.32c2.05.77,0-2.55,2.05-1.78-.39-1.41.38-1.66.38-2.81-1.41-.26-1.79.38-1.92,1C272.45,383.88,272.58,384.27,272.45,384.39Zm-1.27,20.43c-.51,1.66.25,2.3.38,1.27C271.69,405.84,271.43,403.41,271.18,404.82Zm.76-6.77c-.38,1.28-.76,3.7-.38,4.34.77.38,2-.89.89-.89.26.38-.51.38-.51.51C272.33,401,273.35,399.07,271.94,398.05Zm1.53-4.59c-.12,0-1,.12-1,.38-.12.89.77,1.15.51,1.91,0,.13-.89-.12-1,0s.26,1.41,0,1.79c1.28.64.9-.89,1-1.79h.51c.13-.51-.25-1.53,0-1.91,0-.13.52,0,.52,0,.12-.64-.64-1-.52-1.4a.89.89,0,0,0,.52-.51c0-.26.63-1.66.38-1.79s-1.15.13-.9.38c.9.38-.51,1.41-.51,1.41C272.84,392.56,273.47,393.2,273.47,393.46Zm9.45-50c.89.38,2.3.38,1.79,2.3a3.37,3.37,0,0,0,1-1.53c.38.51,1.4.38,1.53,1,0,1.4.89-.9,1.28,1,1-.9.63,0,1.91,0,.26.51-.76,1-.38,1.28h.38c-.13.76-.76,1.65-.89,2.29a9,9,0,0,1-1,3.07c-.13.12-.26,1.27-.52,1.4a4.06,4.06,0,0,0-.76,1.79c-.25.76-.51,2.17-1.53,2.42-.13,1.28-.26,2.81-1.28,3.32-1,.26-1-.77-1-1.53a3.19,3.19,0,0,0-1,1.53c-.64-.25.13-.51,0-1a3,3,0,0,1-2.3.51c.13-1.28-.89-1,0-1.91-1,.38-1.27,1.27-2.93.89.25-1.4-.9-1.53-.39-3.19-.76.38-.76,1.53-1,2.3-1.78,0-1.78-1.54-3.32-1.92.51-.38.39-1.15.51-1.79.13-.38.51-.38.51-.51,0-.38-.51-.51-.51-.38,0-.26.39-.76.51-1,.39-.64.13-.89.52-2.3,0-.13.38-.13.38-.51a7,7,0,0,1,.51-1.53,7.28,7.28,0,0,1,.89-2.68c.13-.26.26-1.41.51-1.53,0,0,.39.12.51,0,.26-.9.13-1.79.39-2.3s1.27-.51,1-1.4a14,14,0,0,1,3.32.89c.25,1.4-.39,1.66-.39,2.81A4,4,0,0,1,282.92,343.42Zm-7.66,35.23c-1.79.13-1,2.68-2.3,3.32C275.26,382.61,275.13,380.57,275.26,378.65Zm-.38,11c.25,0,.51,0,.38-.51-.64,0-.13-1.28-.89-1.41.13.9-.51,1-.38,1.92Zm.89-3.19a1.2,1.2,0,0,0-1.4.76A1.34,1.34,0,0,0,275.77,386.44Zm.51-8.17v-.9h-1v.9Zm.9,4.85c-.64,0-1.79.13-.9.51C277.56,384.14,277.94,381.59,277.18,383.12Zm2.29-33.32" transform="translate(-84.36 -298.76)"/>
    <path class="cls-4" d="M319.81,375.84c-.13,2-1.53-.51-1.28,1.53-.25.51,2.3.26,1.79-1,.64.77,1.41,1.53,1.92,2.3a2.52,2.52,0,0,1,2.29-.38,2.27,2.27,0,0,1,.51,1.4,1.62,1.62,0,0,1,2.3,0c-.51.64-.38,1.66-1.4,1.79-.13.64.25,1.66,0,2.17-.13.13-.9.25-.9.38a24.41,24.41,0,0,1-.51,2.43,11.94,11.94,0,0,0-.38,1.78c0-.25.64.26.38.51-.64.51-.64,1.66-.89,3.2a17.82,17.82,0,0,0-.89,3.31c-.39,1.66-.26,3.45-1,5.24,0,.25.12.89,0,1h-.39a22.77,22.77,0,0,0-.51,4.21c-.25,1.41-.25,2.81-.51,4.21,0-.12-.76.13-.51.39.64.51,0,.25,0,.51s.64.51.51,1c0,.13-.38.13-.51.38-.13.89-.25,1.28-.38,1.91a1.66,1.66,0,0,1,.38,1.15.45.45,0,0,0-.38.26c-.13,1.53.13,2.55,0,3.83-1.41-.51-3.07,0-4.22-.51-.12,0-.38-.77-.51-.77s-.63.26-.51.26c-1.15-.51-1.4-.51-1.91-1.79a3.11,3.11,0,0,1-2.3.51c-2.68-2.3-1-8.42-1-12.25-.25-1.41-.77.64-1.4.38.25,1-1.28,1.28-1.79,1.92s-.89,1.53-1.53,1.78-1.15.13-1.79.51c-.25.13,0,.39-.51.51s-1.66.77-3.32.39a7.85,7.85,0,0,1-2.42-.39,3.75,3.75,0,0,0-1.41-1c-.13,0-.76.13-.89,0-.64-.76-4.47-1.66-4.72-1.78s-.64-.77-.9-1c-1.15-1-1.78-3.19-2.42-5.61a18.1,18.1,0,0,1-.39-2.94c0,.13-.76-.13-.51-.51.51-.38.13-.25,0-.77v-3.82c.13-1.28.26-2.94.51-4.22a9.85,9.85,0,0,1,.9-2.8,26.74,26.74,0,0,1,.89-3.45c.64-.77,1.28-2.81,1.92-4.09.12-.25.38-.12.51-.51a5.26,5.26,0,0,1,1.4-2.8c.26-.26.26-.64.51-1a24.3,24.3,0,0,1,1.79-1.91c.25-.13.25-1,.51-1.28s.76.13.89,0-.13-.51,0-.51a8.24,8.24,0,0,1,2-1.4,6.48,6.48,0,0,0,1.28-2c.26-.13.89.12,1,0v-.51c.13,0,.89.12,1,0s-.13-.39,0-.51.77.25.77,0c.13,0,0-.26,0-.26.25-.13.89.13,1,0,.51-.77,3.19-.64,5.23-.51,1.79,1.53,6.77,3.45,10.34,4.72.13,0,.9-.13,1,0s-.12.51,0,.51.77-.13.9,0c.25.39,1.53.51,2.3.9.38.25.25.76.51.89s.76.38.89.51c.64,1.4-.13,2.55-.38,4.21C320.83,377,321,374.69,319.81,375.84Zm-28.72,9.58c.26,0,.51-.39,0-.52a18.28,18.28,0,0,0-1,2.81C290.45,388.86,291.09,386.31,291.09,385.42Zm.89-2.81a10.88,10.88,0,0,1-.89,1.78C292.11,384.78,293,382.73,292,382.61Zm5.36,8.93c-.12.26-.51.64-.51.9s.77.25.51,1c-.12.12-1.4-.13-1.14.38,1.27.13,0,2.68,1.65,2.42-.76-1.53.26-1.65-.51-2.8.64,0,.26-1.28.51-1.92,0-.38,1.54-1.4.26-1.4-.89,1.53.77-2.94-.77-1,.51.12,0,.38,0,.51C297.22,390.27,297.47,390.9,297.34,391.54Zm.51,7.66c-.38-.13-.63-.38-.51-1.15.26,0,.51-.38,0-.51,0,.64-1,.51-1.14,1.15C296.83,398.56,297.34,400.61,297.85,399.2Zm.77-12c.38.38-.89.77-.77,1,.77-.12.77.64,1.28.9-.89-1.54,1-5.24,0-6-.76.64-.25,1.66-.51,2.81C298.49,386.69,298,386.69,298.62,387.2Zm11.74-11.36c-.25.26-2.42,2.55-2.8,2.81-.13.13.12.89,0,1-.39.38-1,.51-1.41,1-.25.26-.13.77-.38,1.28-.13.13-.89.38-1,.64s.13.76,0,1a6.25,6.25,0,0,1-.9.38c-.12.13.13.77,0,.89-.76,1-1.15.77-1.4,1.92a19.54,19.54,0,0,1-1.91,3.7,10.59,10.59,0,0,0-.9,2.94,10.94,10.94,0,0,0-1,4.59c1.4.51,1.4-1.27,1.92-1.79.51-.76,1.4-1.27,1.91-1.91l1.4-2.42.9-.9a18.31,18.31,0,0,0,1.4-2.81c.64-.89,1.41-1.15,1.92-1.78a14.32,14.32,0,0,1,1.4-2.81c.26-.38.64-.51.89-1a15.75,15.75,0,0,0,1.41-2.94c1.27-.25,1.66,1.28,1.66-.51,1.15-.77,2.42-3.45,1.78-4.59-1.91-.39-2.55.38-3.44.89C311.39,375.71,310.75,375.59,310.36,375.84Zm-11.23,6.77c1.15.76,1.41-1.66.51-1.54,0,.26-.12.52-.51.39Zm1-4s.64.13.39.51c-.26.64-1.54,1,0,1.53a31.45,31.45,0,0,1,1.4-3.83c.38-.64,1-1.78-.51-1.4-.38.76.13,2.17-.51,2.81C300.79,378.65,300.28,378,300.15,378.65Zm13.53,27.44c-.38-.12-.25-.38,0-.89-.25,0-.76,0-.76-.38.51-.13.38-.64-.64-.51.64,2.42-.13,2.29-.51,4.59C314.07,408.52,312.28,407.12,313.68,406.09Zm-1.4-2.29c.89-.13,1.79.12,1.91-.51-.38-.13-.76,0-.76-.52,1.15-.25-.77-1.4,0-2.8.38,0,1-.13.76-.77h-.76c-.39,0-.64,0-.51.51.51,0-.13,2.55-.64,3.06C313,402.9,312.66,403.41,312.28,403.8Zm2.42-13.28,1-3.32c-.63,1,.77,2.3.77,1C316,388.22,316.24,387.33,315.72,387.2Z" transform="translate(-84.36 -298.76)"/>
  </g>
  <text class="cls-5" transform="translate(0 160.19)"><tspan xml:space="preserve"> NUTRIÓLOGA POCKET</tspan></text>
</svg>
